<svg width="18" height="22" viewBox="0 0 18 22" fill="none" xmlns="http://www.w3.org/2000/svg">
<path d="M4.23931 4.83843H5.64657V2.76856C5.64657 2.33188 5.76166 1.99563 5.99185 1.75982C6.22202 1.52402 6.56437 1.40612 7.01889 1.40612H10.8823V5.88646C10.8823 6.39301 11.0062 6.76856 11.2538 7.01311C11.5015 7.25764 11.8759 7.37991 12.377 7.37991H16.4677V14.8472C16.4677 15.2839 16.3512 15.6201 16.1181 15.8559C15.885 16.0917 15.5412 16.2096 15.0867 16.2096H13.3647V17.6158H15.1654C16.0686 17.6158 16.746 17.3858 17.1976 16.9258C17.6492 16.4658 17.875 15.7817 17.875 14.8734V7.78166C17.875 7.246 17.8109 6.79185 17.6827 6.41921C17.5545 6.04658 17.3272 5.69141 17.0009 5.35372L12.5868 0.873362C12.2779 0.55313 11.937 0.327511 11.5641 0.196507C11.1912 0.0655023 10.7687 0 10.2967 0H6.94896C6.04574 0 5.36833 0.229985 4.91671 0.689956C4.46511 1.14993 4.23931 1.83406 4.23931 2.74236V4.83843ZM12.1497 5.67686V2.09607L16.1006 6.11354H12.578C12.4265 6.11354 12.3173 6.08006 12.2503 6.0131C12.1832 5.94615 12.1497 5.83407 12.1497 5.67686ZM0 19.2314C0 20.1456 0.225805 20.8311 0.677415 21.2882C1.12902 21.7453 1.80644 21.9738 2.70965 21.9738H10.926C11.8292 21.9738 12.5067 21.7438 12.9583 21.2838C13.4099 20.8238 13.6357 20.1397 13.6357 19.2314V12.4105C13.6357 12.0379 13.6153 11.7235 13.5745 11.4673C13.5337 11.2111 13.4536 10.9767 13.3342 10.7642C13.2147 10.5517 13.0384 10.3261 12.8053 10.0873L7.98912 5.18777C7.65697 4.84425 7.33064 4.62009 7.01015 4.51529C6.68965 4.41048 6.28466 4.35808 5.79517 4.35808H2.70965C1.80644 4.35808 1.12902 4.58807 0.677415 5.04804C0.225805 5.50801 0 6.19214 0 7.10044V19.2314ZM1.40728 19.2052V7.1179C1.40728 6.68705 1.52236 6.35371 1.75254 6.11791C1.98271 5.8821 2.32506 5.76419 2.77959 5.76419H5.64657V10.8297C5.64657 11.3828 5.78497 11.7962 6.06177 12.0699C6.33856 12.3435 6.74792 12.4804 7.28985 12.4804H12.2284V19.2052C12.2284 19.6419 12.1119 19.9781 11.8788 20.2139C11.6457 20.4498 11.3048 20.5676 10.8561 20.5676H2.77084C2.32215 20.5676 1.98271 20.4498 1.75254 20.2139C1.52236 19.9781 1.40728 19.6419 1.40728 19.2052ZM7.45593 11.1616C7.28112 11.1616 7.15583 11.1237 7.08008 11.048C7.00432 10.9724 6.96644 10.8472 6.96644 10.6725V6.08734L11.9575 11.1616H7.45593Z" fill="#0A84FF"/>
</svg>
